<svg width="173" height="43" viewBox="0 0 173 43" fill="none" xmlns="http://www.w3.org/2000/svg">
<g clip-path="url(#clip0_157_521)">
<path d="M16.4555 21.809C19.7023 20.4475 21.8539 17.5537 21.8539 12.7688C21.8539 4.34503 15.9737 2.76501 9.91701 2.76501C6.53852 2.76501 2.76503 3.16002 0 3.73158V32.3844H7.8971V22.4225C8.2921 22.5093 8.64222 22.5541 9.127 22.599L14.9623 32.3844H23.4758L16.4555 21.809ZM9.87212 17.4221C9.25867 17.4221 8.55544 17.3353 7.8971 17.2904V8.38186C8.51055 8.29508 9.16889 8.29508 9.91701 8.29508C11.9788 8.29508 14.2172 9.12997 14.2172 12.9454C14.2172 16.7607 12.2421 17.4221 9.87212 17.4221Z" fill="#008EFF"/>
<path d="M40.0479 9.60876V26.986C39.2579 27.1625 38.423 27.2942 37.3727 27.2942C35.7927 27.1625 34.3443 26.5042 34.3443 23.9157V9.60876H26.7524V24.3526C26.7524 30.6727 31.3159 32.7345 36.1877 32.7345C41.0594 32.7345 45.578 31.4178 47.5979 30.6727V9.60876H40.0509H40.0479Z" fill="#008EFF"/>
<path d="M62.5725 9.25867C58.7122 9.25867 54.6754 10.1355 52.042 11.0571V42.4839C53.4365 41.5413 55.1332 41.0296 56.9556 41.0296C57.7785 41.0296 58.6793 41.1553 59.6339 41.4037V32.6507C60.6423 32.8273 61.6957 32.914 62.6173 32.914C71.1728 32.914 73.6745 27.1655 73.6745 20.7168C73.6745 11.5449 68.2342 9.26465 62.5725 9.26465V9.25867ZM61.6508 27.1625C61.0373 27.1625 60.379 27.0758 59.6309 26.8992V15.1388C60.5077 14.9204 61.3426 14.8755 62.0009 14.8755C64.7659 14.8755 66.0377 16.9373 66.0377 20.6689C66.0377 24.6608 64.6343 27.1625 61.6508 27.1625Z" fill="#008EFF"/>
<path d="M76.9209 9.60878V32.3844H84.6444V9.60878H76.9209ZM76.9209 0V7.28364H84.6444V0H76.9209Z" fill="#008EFF"/>
<path d="M106.478 26.3696C104.24 26.983 102.573 27.2463 101.079 27.2463C97.9194 27.2463 95.8576 25.9745 95.8576 20.9263C95.8576 15.878 97.7878 14.696 100.948 14.696C102.351 14.696 103.668 14.8725 105.643 15.486L106.696 10.0457C104.326 9.30057 102.046 9.03723 100.113 9.03723C93.6612 9.03723 88.3525 12.1973 88.3525 20.8844C88.3525 29.5715 93.7509 32.6896 99.8945 32.6896C102.396 32.6896 104.545 32.3395 107.046 31.5495L106.475 26.3725L106.478 26.3696Z" fill="#008EFF"/>
<path d="M120.198 8.99231C117.301 8.99231 113.968 9.60576 111.026 10.7908L112.256 15.7942C114.055 15.1807 116.511 14.8276 118.313 14.8276C120.288 14.8276 121.56 15.3094 121.56 17.7662V19.2145C120.198 18.8195 118.753 18.6879 117.304 18.6879C113.049 18.6879 109.054 20.4863 109.054 25.8398C109.054 31.4567 114.013 32.8183 119.19 32.8183C122.963 32.8183 126.868 31.9834 129.107 31.0198V17.6794C129.107 10.9643 125.07 8.99231 120.198 8.99231ZM121.56 27.8598C120.901 28.0782 120.111 28.168 119.408 28.168C117.828 28.168 116.293 27.6413 116.293 25.6663C116.338 23.5596 117.786 22.7696 119.453 22.7696C120.156 22.7696 120.901 22.9013 121.56 23.1646V27.8598Z" fill="#008EFF"/>
<path d="M150.703 10.3778C150.108 11.8681 149.509 13.3613 148.914 14.8515C148.776 15.1927 148.641 15.5368 148.492 15.875C147.346 15.1508 146.065 14.6121 144.718 14.4326C143.03 14.2052 141.429 14.6002 140.047 15.5727V32.1599H132.455V9.38731H139.212L139.344 11.8441C139.658 11.4222 140.008 11.0481 140.397 10.722C141.741 9.57285 143.473 8.99231 145.311 8.99231C146.101 8.99231 148.872 9.28258 150.7 10.3778H150.703Z" fill="#008EFF"/>
<path d="M165.408 1.44531V9.3873C164.355 9.16885 163.302 9.07907 162.38 9.07907C154.175 9.07907 151.673 15.3094 151.673 21.1896C151.673 30.3614 156.981 32.5998 162.688 32.5998C166.375 32.5998 170.235 32.1599 173 31.1514V1.44531H165.408ZM165.408 26.9411C164.705 27.1176 164.047 27.2044 163.523 27.2044C160.935 27.2044 159.354 25.361 159.354 21.2374C159.354 17.4639 160.671 14.4356 163.391 14.4356C163.963 14.4356 164.663 14.4805 165.411 14.654V26.9411H165.408Z" fill="#008EFF"/>
</g>
<defs>
<clipPath id="clip0_157_521">
<rect width="173" height="42.4839" fill="white"/>
</clipPath>
</defs>
</svg>
